<?xml version="1.0" standalone="no"?><!DOCTYPE svg PUBLIC "-//W3C//DTD SVG 1.1//EN" "http://www.w3.org/Graphics/SVG/1.1/DTD/svg11.dtd"><svg class="icon" width="48px" height="48.00px" viewBox="0 0 1024 1024" version="1.1" xmlns="http://www.w3.org/2000/svg"><path fill="#515151" d="M853.617778 85.333333c23.381333 0 42.382222 18.944 42.382222 42.325334l0.056889 418.645333a256 256 0 0 0-318.805333 392.476444L170.382222 938.666667a42.382222 42.382222 0 0 1-42.382222-42.325334V127.658667a42.666667 42.666667 0 0 1 42.382222-42.325334h683.235556zM540.444444 170.666667H298.666667v384l120.888889-85.333334L540.444444 554.666667V170.666667z m398.791112 714.979555a38.343111 38.343111 0 0 1-26.965334 65.308445 37.888 37.888 0 0 1-26.965333-11.207111l-76.8-76.8-7.395556-7.509334-9.955555 3.584a111.502222 111.502222 0 0 1-142.051556-143.075555l61.041778 61.098666 11.776 11.832889 11.776-11.776 43.121778-43.235555 11.776-11.776-72.817778-72.931556a111.559111 111.559111 0 0 1 142.848 142.222222l-3.527111 9.955556 7.452444 7.509333 76.743111 76.8z m11.832888 65.934222a54.499556 54.499556 0 0 1-38.798222 16.099556c-14.620444 0-28.444444-5.745778-38.798222-16.099556l-76.686222-76.8a128.227556 128.227556 0 0 1-160.426667-171.633777l2.275556-5.518223h0.113777v-0.056888a7.623111 7.623111 0 0 1 12.515556-2.787556 0.341333 0.341333 0 0 0 0.341333 0.170667h0.113778l70.200889 70.314666 43.121778-43.178666-71.68-71.793778v-0.056889a6.485333 6.485333 0 0 1 1.991111-10.581333l7.623111-3.356445a128.227556 128.227556 0 0 1 171.349333 160.711111l76.743111 76.8a55.068444 55.068444 0 0 1 0 77.767111z"  /></svg>