<?xml version="1.0" standalone="no"?><!DOCTYPE svg PUBLIC "-//W3C//DTD SVG 1.1//EN" "http://www.w3.org/Graphics/SVG/1.1/DTD/svg11.dtd"><svg class="icon" width="48px" height="48.00px" viewBox="0 0 1024 1024" version="1.1" xmlns="http://www.w3.org/2000/svg"><path fill="#515151" d="M512 56.888889a455.111111 455.111111 0 1 1 0 910.222222A455.111111 455.111111 0 0 1 512 56.888889z m16.099556 227.555555H369.777778v488.675556h98.645333v-184.32h64.341333c44.657778 0 78.791111-2.332444 102.4-6.997333 17.294222-3.811556 34.360889-11.548444 51.086223-23.210667 16.782222-11.662222 30.663111-27.704889 41.528889-48.128 10.865778-20.48 16.327111-45.681778 16.327111-75.662222 0-38.912-9.443556-70.656-28.330667-95.175111a128.113778 128.113778 0 0 0-70.314667-47.843556c-16.725333-4.494222-50.972444-6.940444-102.798222-7.281778L528.099556 284.444444z m58.993777 86.016a68.266667 68.266667 0 0 1 39.708445 21.617778c10.410667 11.605333 15.644444 26.282667 15.644444 44.032 0 14.449778-3.697778 27.136-11.150222 38.001778-7.452444 10.865778-17.749333 18.887111-30.833778 24.007111-13.084444 5.12-39.139556 7.68-77.994666 7.68h-54.044445V367.104h47.672889c35.555556 0 59.221333 1.137778 70.997333 3.356444z"  /></svg>