<?xml version="1.0" standalone="no"?><!DOCTYPE svg PUBLIC "-//W3C//DTD SVG 1.1//EN" "http://www.w3.org/Graphics/SVG/1.1/DTD/svg11.dtd"><svg class="icon" width="48px" height="48.00px" viewBox="0 0 1024 1024" version="1.1" xmlns="http://www.w3.org/2000/svg"><path fill="#515151" d="M948.167111 113.777778a56.888889 56.888889 0 0 1 56.888889 56.888889v682.666666a56.888889 56.888889 0 0 1-56.888889 56.888889H75.832889a56.888889 56.888889 0 0 1-56.888889-56.888889V170.666667a56.888889 56.888889 0 0 1 56.888889-56.888889h872.334222zM256 590.222222a170.666667 170.666667 0 0 0-170.666667 170.666667h341.333334a170.666667 170.666667 0 0 0-170.666667-170.666667zM872.277333 568.888889h-341.333333v85.333333h341.333333V568.888889zM256 312.888889a128 128 0 1 0-0.056889 255.943111A128 128 0 0 0 256 312.888889zM872.277333 398.222222h-341.333333v85.333334h341.333333V398.222222z"  /></svg>